<svg width="40" height="40" viewBox="0 0 40 40" fill="none" xmlns="http://www.w3.org/2000/svg">
<path d="M20 40C31.0457 40 40 31.0457 40 20C40 8.9543 31.0457 0 20 0C8.9543 0 0 8.9543 0 20C0 31.0457 8.9543 40 20 40Z" fill="#FEA31E"/>
<path d="M40.0001 20.0003C40.0001 17.2364 39.4394 14.6035 38.4257 12.2091L30.4952 4.25195C30.4952 4.25195 25.1347 10.753 24.4272 12.318C23.5297 11.8713 20.4609 12.7168 20.0243 12.7366L12.284 5.00297L8.7749 28.9484L17.9158 39.8926C18.6009 39.9635 19.2962 40.0003 20.0001 40.0003C31.0458 40.0003 40.0001 31.046 40.0001 20.0003Z" fill="#FCD316"/>
<path d="M31.2204 28.9457L30.8946 29.1973C29.5571 30.2293 28.3188 31.3769 27.1923 32.6269C26.2228 33.7027 25.3368 34.8535 24.5431 36.0707C24.2462 36.5246 23.7853 36.848 23.254 36.9582C21.4095 37.341 20.0571 36.3801 20.0571 36.3801C20.0571 36.3801 20.0376 36.3941 20.0001 36.4176C19.9626 36.3941 19.9431 36.3801 19.9431 36.3801C19.9431 36.3801 18.5899 37.341 16.7462 36.9582C16.2149 36.848 15.7532 36.5246 15.4571 36.0707C14.6626 34.8535 13.7774 33.7027 12.8079 32.6269C11.6813 31.3769 10.4431 30.2293 9.10557 29.1973L8.77979 28.9457C8.77979 28.9316 8.78135 27.616 9.3751 25.8066C10.4634 22.4957 12.6595 17.516 14.2509 15.7308C16.8962 12.7652 16.1548 13.0848 19.9431 13.0848H20.0571C23.8454 13.0848 23.104 12.7652 25.7493 15.7308C27.3407 17.516 29.1571 22.5027 30.2454 25.8137C30.8423 27.6324 31.2204 28.9457 31.2204 28.9457Z" fill="#FCF3EB"/>
<path d="M31.2203 28.9457L30.8945 29.1973C29.557 30.2293 28.3187 31.3769 27.1922 32.6269C26.2227 33.7027 25.3367 34.8535 24.543 36.0707C24.2461 36.5246 23.7852 36.848 23.2539 36.9582C21.4094 37.341 20.057 36.3801 20.057 36.3801C20.057 36.3801 20.0375 36.3941 20 36.4176V13.0848H20.057C23.8453 13.0848 23.1039 12.7652 25.7492 15.7308C27.3406 17.516 29.157 22.5027 30.2453 25.8137C30.8422 27.6324 31.2203 28.9457 31.2203 28.9457Z" fill="#E8DED6"/>
<path d="M29.7834 3.83886C27.6616 3.4287 24.5616 9.9412 23.8155 11.585C22.9389 11.1787 21.9108 11.1209 20.0569 11.1209V11.1225L20.0561 11.1209H20.0002H19.9999H19.9439L19.9431 11.1225V11.1209C18.0892 11.1209 17.0611 11.1787 16.1845 11.585C15.4384 9.9412 12.3384 3.4287 10.2166 3.83886C8.37126 4.19589 5.3486 11.0107 8.08688 22.1146C7.62204 24.0506 7.69548 26.3068 8.77516 28.9482L9.20798 27.5639C9.55876 26.442 10.333 25.5006 11.3674 24.9404C11.3674 24.9404 11.3838 23.5162 11.8166 21.8545C12.2494 20.1935 13.0986 18.2935 14.7658 17.3435C16.5572 16.3217 17.5783 17.856 19.9431 17.856H19.9439C19.9626 17.856 19.9813 17.856 20 17.8545C20.0187 17.856 20.0374 17.856 20.0561 17.856H20.0569C22.4217 17.856 23.4428 16.3217 25.2342 17.3435C26.9014 18.2935 27.7506 20.1935 28.1834 21.8545C28.6163 23.5162 28.6327 24.9404 28.6327 24.9404C29.667 25.5006 30.4413 26.442 30.792 27.5639L31.2249 28.9482C32.3045 26.3068 32.378 24.0506 31.9131 22.1146C34.6514 11.0107 31.6288 4.19589 29.7834 3.83886V3.83886Z" fill="#4F4C5E"/>
<path d="M19.9995 11.1209V17.8545C20.0183 17.856 20.037 17.856 20.0558 17.856H20.0565C22.4214 17.856 23.4425 16.3217 25.2339 17.3435C26.9011 18.2935 27.7503 20.1935 28.1831 21.8545C28.6159 23.5162 28.6323 24.9404 28.6323 24.9404C29.6667 25.5006 30.4409 26.442 30.7917 27.5639L31.2245 28.9482C32.3042 26.3068 32.3777 24.0506 31.9128 22.1146C34.6511 11.0107 31.6284 4.19589 29.7831 3.83886C27.6612 3.4287 24.5612 9.9412 23.8151 11.585C22.9386 11.1787 21.9105 11.1209 20.0565 11.1209V11.1225L20.0558 11.1209H19.9995Z" fill="#3C3A4C"/>
<path d="M16.3795 24.9405C17.0852 24.9405 17.6573 24.3684 17.6573 23.6627C17.6573 22.9569 17.0852 22.3848 16.3795 22.3848C15.6737 22.3848 15.1016 22.9569 15.1016 23.6627C15.1016 24.3684 15.6737 24.9405 16.3795 24.9405Z" fill="#514B40"/>
<path d="M23.5254 24.9405C24.2312 24.9405 24.8033 24.3684 24.8033 23.6627C24.8033 22.9569 24.2312 22.3848 23.5254 22.3848C22.8197 22.3848 22.2476 22.9569 22.2476 23.6627C22.2476 24.3684 22.8197 24.9405 23.5254 24.9405Z" fill="#3A352E"/>
<path d="M19.9998 29.5293C18.0848 29.5293 16.4015 29.6341 16.8951 31.6186C17.2143 32.9015 19.2454 33.8179 19.9998 33.8179C20.7543 33.8179 22.7853 32.9016 23.1045 31.6186C23.5983 29.634 21.9148 29.5293 19.9998 29.5293V29.5293Z" fill="#514B40"/>
<path d="M23.1045 31.6183C22.7857 32.9021 20.7544 33.8183 20 33.8183V29.5298C21.9152 29.5298 23.5985 29.6346 23.1045 31.6183Z" fill="#3A352E"/>
<path d="M14.3376 13.0473C13.9953 13.4043 13.614 13.8269 13.1679 14.3274C12.2504 15.3561 10.9865 16.6102 9.91809 18.1621C8.85942 11.8937 10.06 8.70233 10.9792 8.48741C12.0305 8.24163 13.7405 11.7421 14.3376 13.0473V13.0473Z" fill="#E298A6"/>
<path d="M30.0588 18.2957C28.9718 16.6822 27.6617 15.3858 26.7182 14.3279C26.3053 13.8647 25.9484 13.468 25.6255 13.129C26.1853 11.895 27.9472 8.23645 29.0205 8.48794C29.9461 8.7045 31.1565 11.9397 30.0588 18.2957V18.2957Z" fill="#D3798E"/>
</svg>
