<svg width="40" height="40" viewBox="0 0 40 40" fill="none" xmlns="http://www.w3.org/2000/svg">
<g clip-path="url(#clip0)">
<path d="M25.8628 5.86108C25.8628 7.23904 25.3753 8.57715 24.4895 9.63014H15.5196C14.6337 8.57715 14.1455 7.23904 14.1455 5.86108C14.1455 2.63258 16.7702 0.00634717 19.9971 0.00244141H20.0041C23.235 0.00244141 25.8628 2.63024 25.8628 5.86108Z" fill="#B9DD39"/>
<path d="M25.8632 5.86108C25.8632 7.23904 25.3758 8.57715 24.49 9.63014H19.9976V0.00244141H20.0046C23.2354 0.00244141 25.8632 2.63024 25.8632 5.86108Z" fill="#90CC1C"/>
<path d="M39.4229 10.2453C36.7794 6.63059 29.3978 6.718 24.5732 8.60808L31.246 16.5382C33.4771 13.8271 35.1525 13.9516 36.636 14.0615C37.5601 14.1299 38.7102 14.215 39.4923 13.2499C40.1929 12.3859 40.1669 11.2627 39.4229 10.2453Z" fill="#90CC1C"/>
<path d="M0.55564 10.2961C-0.169035 11.2878 -0.186455 12.3921 0.509084 13.2501C1.29883 14.2244 2.45868 14.1352 3.39036 14.0634C4.87627 13.949 6.54661 13.8194 8.77516 16.5165L15.4475 8.60112C8.60331 5.92505 2.30339 7.90473 0.55564 10.2961V10.2961Z" fill="#B9DD39"/>
<path d="M31.1159 27.688L23.915 36.8408C24.8705 36.8612 25.6771 36.7488 26.4568 36.6402C29.468 36.2205 31.1136 36.4986 32.861 38.5374C33.4228 39.1929 34.1125 39.9978 35.2125 39.9977C36.3022 39.9977 37.2456 39.3197 37.5211 38.1179C38.274 34.8333 34.4322 29.7431 31.1159 27.688V27.688Z" fill="#90CC1C"/>
<path d="M8.89391 27.688C6.0852 29.4286 4.53704 31.5557 3.73292 33.0336C2.73359 34.8703 2.31997 36.7652 2.62657 38.1025C2.90544 39.3191 3.76323 39.997 4.78505 39.997C5.84461 39.997 6.52585 39.2145 7.08047 38.5775C9.00515 36.3669 10.78 36.1983 13.8369 36.6809C14.4599 36.7793 14.9985 36.8641 16.0947 36.8408L8.89391 27.688Z" fill="#B9DD39"/>
<path d="M20.0042 7.18945H19.9972C12.4966 7.19414 7.11523 14.4596 7.11523 22.4219C7.11523 30.2952 12.4247 37.6497 19.9972 37.6544H20.0042C27.5096 37.6544 32.8933 30.3866 32.8933 22.4219C32.8933 14.5463 27.5814 7.18945 20.0042 7.18945V7.18945Z" fill="#D2841E"/>
<path d="M32.8936 22.4219C32.8936 30.3866 27.5099 37.6544 20.0046 37.6544H19.9976V7.18945H20.0046C27.5818 7.18945 32.8936 14.5463 32.8936 22.4219Z" fill="#FE9E1F"/>
<path d="M30.5501 22.4222C30.5501 28.9909 26.2428 35.3112 20.0045 35.3112H19.9975C13.7475 35.3065 9.45898 28.9667 9.45898 22.4222C9.45898 15.8559 13.7639 9.53789 19.9975 9.5332H20.0045C26.2577 9.5332 30.5501 15.8723 30.5501 22.4222Z" fill="#FE9E1F"/>
<path d="M30.5501 22.4222C30.5501 28.9909 26.2429 35.3112 20.0046 35.3112H19.9976V9.5332H20.0046C26.2577 9.5332 30.5501 15.8723 30.5501 22.4222Z" fill="#B34F03"/>
<path d="M23.5101 22.4221L26.2168 20.0786H31.9543C31.8465 19.2787 31.6817 18.4952 31.4646 17.7351H26.2168L23.4632 15.3511L27.7314 11.2922C27.1581 10.7227 26.5472 10.222 25.9059 9.79395L21.2518 14.22H18.7326L13.8839 9.94471C13.2512 10.3876 12.6505 10.9024 12.0873 11.4851L16.5086 15.3839L13.7925 17.7351H8.54476C8.32682 18.4952 8.16278 19.2787 8.0542 20.0786H13.7925L16.4992 22.4221L13.7925 24.7655H8.0542C8.16278 25.5654 8.32682 26.3489 8.54476 27.109H13.7925L16.5086 29.4602L12.0873 33.359C12.6505 33.9417 13.2512 34.4565 13.8839 34.8994L18.7326 30.6242H21.2518L25.9059 35.0502C26.5472 34.6221 27.1581 34.1214 27.7314 33.5527L23.4632 29.493L26.2168 27.109H31.4646C31.6817 26.3489 31.8465 25.5654 31.9543 24.7655H26.2168L23.5101 22.4221ZM16.0196 18.9069L18.7263 16.5634H21.283L23.9897 18.9069L21.283 21.2503H18.7263L16.0196 18.9069ZM21.283 28.2807H18.7263L16.0196 25.9372L18.7263 23.5938H21.283L23.9897 25.9372L21.283 28.2807Z" fill="#D2841E"/>
<path d="M26.2171 24.7655H31.9547C31.8469 25.5654 31.682 26.3489 31.4649 27.109H26.2171L23.4635 29.493L27.7317 33.5527C27.1584 34.1214 26.5475 34.6221 25.9062 35.0502L21.2521 30.6242H19.9976V28.2807H21.2833L23.99 25.9372L21.2833 23.5938H19.9976V21.2503H21.2833L23.99 18.9069L21.2833 16.5634H19.9976V14.22H21.2521L25.9062 9.79395C26.5475 10.222 27.1584 10.7227 27.7317 11.2922L23.4635 15.3511L26.2171 17.7351H31.4649C31.682 18.4952 31.8469 19.2787 31.9547 20.0786H26.2171L23.5104 22.4221L26.2171 24.7655Z" fill="#FE9E1F"/>
</g>
<defs>
<clipPath id="clip0">
<rect width="40" height="40" fill="white"/>
</clipPath>
</defs>
</svg>
